<svg width="100" height="100" viewBox="0 0 100 100" fill="none" xmlns="http://www.w3.org/2000/svg">
<path fill-rule="evenodd" clip-rule="evenodd" d="M50 95C74.8528 95 95 74.8528 95 50C95 25.1472 74.8528 5 50 5C25.1472 5 5 25.1472 5 50C5 74.8528 25.1472 95 50 95ZM50 100C77.6142 100 100 77.6142 100 50C100 22.3858 77.6142 0 50 0C22.3858 0 0 22.3858 0 50C0 77.6142 22.3858 100 50 100Z" fill="url(#paint0_linear_5_25)"/>
<path fill-rule="evenodd" clip-rule="evenodd" d="M50 99C77.062 99 99 77.062 99 50C99 22.938 77.062 1 50 1C22.938 1 1 22.938 1 50C1 77.062 22.938 99 50 99ZM50 100C77.6142 100 100 77.6142 100 50C100 22.3858 77.6142 0 50 0C22.3858 0 0 22.3858 0 50C0 77.6142 22.3858 100 50 100Z" fill="white" fill-opacity="0.8"/>
<path d="M77.3811 26.1425C75.4384 31.4718 67.6066 33.5114 59.8882 30.6979C52.1698 27.8845 47.4876 21.2834 49.4303 15.954C51.3729 10.6247 59.2047 8.58511 66.9231 11.3986C74.6415 14.212 79.3237 20.8131 77.3811 26.1425Z" fill="white"/>
<path d="M89 39.5C89 43.0899 86.0899 46 82.5 46C78.9101 46 76 43.0899 76 39.5C76 35.9101 78.9101 33 82.5 33C86.0899 33 89 35.9101 89 39.5Z" fill="white"/>
<defs>
<linearGradient id="paint0_linear_5_25" x1="22" y1="91.5" x2="77.5" y2="7.5" gradientUnits="userSpaceOnUse">
<stop stop-color="white" stop-opacity="0.1"/>
<stop offset="1" stop-color="white" stop-opacity="0.8"/>
</linearGradient>
</defs>
</svg>
