<svg width="2122" height="1433" viewBox="0 0 2122 1433" fill="none" xmlns="http://www.w3.org/2000/svg">
<path d="M347.5 169L325 275.5L295 291.5L262 391L244.5 564L221.5 595.5L211.5 651L176 756.5L163.5 872L119.5 896.5L75 990.5V1079.5L0.5 1177.5L19.5 1433H2122V0H479.225L412 53.5L380.5 135L347.5 169Z" fill="url(#paint0_linear_29_449)"/>
<path d="M347.5 169L325 275.5L295 291.5L262 391L244.5 564L221.5 595.5L211.5 651L176 756.5L163.5 872L119.5 896.5L75 990.5V1079.5L0.5 1177.5L19.5 1433H2122V0H479.225L412 53.5L380.5 135L347.5 169Z" fill="url(#paint1_radial_29_449)"/>
<defs>
<linearGradient id="paint0_linear_29_449" x1="2223.5" y1="-264.683" x2="146.165" y2="1961.04" gradientUnits="userSpaceOnUse">
<stop stop-color="#8E8B6A"/>
<stop offset="0.0001" stop-color="#8E8B6A"/>
<stop offset="0.427402" stop-color="#4D6572"/>
<stop offset="0.645833" stop-color="#384F44"/>
<stop offset="1" stop-color="#242D31"/>
</linearGradient>
<radialGradient id="paint1_radial_29_449" cx="0" cy="0" r="1" gradientUnits="userSpaceOnUse" gradientTransform="translate(-345.001 1433) rotate(-30.1509) scale(2852.99 3848.61)">
<stop stop-color="#1C134E" stop-opacity="0.7"/>
<stop offset="1" stop-opacity="0.2"/>
</radialGradient>
</defs>
</svg>
